<svg width="18" height="17" viewBox="0 0 18 17" fill="none" xmlns="http://www.w3.org/2000/svg">
<path d="M5.13093 6.62108C4.87283 6.05419 4.73419 5.44023 4.72365 4.81744C4.84612 3.76921 5.34931 2.80249 6.13767 2.10087C6.92604 1.39926 7.94464 1.01164 8.99999 1.01164C10.0553 1.01164 11.074 1.39926 11.8623 2.10087C12.6507 2.80249 13.1539 3.76921 13.2764 4.81744C13.2595 5.43946 13.1212 6.05218 12.8691 6.62108" stroke="#5E5955" stroke-linecap="round" stroke-linejoin="round"/>
<path d="M4.49092 11.5665C3.50993 11.389 2.62264 10.872 1.98442 10.1062C1.3462 9.34033 0.997733 8.37437 1.00001 7.37744C1.00001 5.05017 2.57093 3.59563 4.8982 3.59563" stroke="#5E5955" stroke-linecap="round" stroke-linejoin="round"/>
<path d="M13.0436 3.59563C15.4291 3.59563 17 5.05017 17 7.37744C17.0023 8.37437 16.6538 9.34033 16.0156 10.1062C15.3774 10.872 14.4901 11.389 13.5091 11.5665" stroke="#5E5955" stroke-linecap="round" stroke-linejoin="round"/>
<path d="M4.4909 11.5665V15.9883H13.4509V11.5665" stroke="#5E5955" stroke-linecap="round" stroke-linejoin="round"/>
<path d="M4.4909 13.7774H13.4509" stroke="#5E5955" stroke-linecap="round" stroke-linejoin="round"/>
<path d="M8.97091 13.7774V11.4502" stroke="#5E5955" stroke-linecap="round" stroke-linejoin="round"/>
</svg>
