<svg width="17" height="19" viewBox="0 0 17 19" fill="none" xmlns="http://www.w3.org/2000/svg">
<path d="M6.44797 10.0614L8.0766 11.6901L3.53971 16.227C3.43277 16.3339 3.30581 16.4187 3.16609 16.4766C3.02637 16.5345 2.87663 16.5643 2.72539 16.5643C2.57416 16.5643 2.42443 16.5345 2.28471 16.4766C2.14498 16.4187 2.01803 16.3339 1.91109 16.2269C1.69512 16.011 1.57378 15.7181 1.57378 15.4126C1.57378 15.1072 1.69511 14.8143 1.91108 14.5983L6.44797 10.0614Z" stroke="#5E5955" stroke-linecap="round" stroke-linejoin="round"/>
<path d="M8.13886 11.6403C14.5001 9.88543 15.8711 7.41767 15.8163 5.66284C15.8163 4.79019 15.4696 3.9533 14.8526 3.33624C14.2355 2.71919 13.3986 2.37251 12.526 2.37251C10.7163 2.31768 8.30337 3.68864 6.49369 10.0499" stroke="#5E5955" stroke-linecap="round" stroke-linejoin="round"/>
<path d="M7.42596 10.7629C9.67434 5.77253 11.5937 3.52414 13.2389 2.97575C13.5123 2.8764 13.809 2.85985 14.0919 2.92813C14.3747 2.9964 14.6311 3.14647 14.8292 3.35963C15.0487 3.55326 15.2032 3.80974 15.2719 4.09425C15.3406 4.37876 15.32 4.67754 15.213 4.94997C14.6647 6.59513 12.4163 8.51447 7.42596 10.7629Z" stroke="#5E5955" stroke-linecap="round" stroke-linejoin="round"/>
</svg>
